#N canvas 137 140 735 547 10;
#X text 13 7 calculate phasor freq;
#X obj 120 141 t b f;
#X obj 70 171 samplerate~;
#X obj 132 201 /;
#X obj 160 37 inlet;
#X obj 14 170 outlet;
#X obj 132 228 outlet;
#X obj 92 107 t f f;
#X obj 92 37 inlet;
#X obj 91 70 timer 1 samp;
#X connect 1 0 2 0;
#X connect 1 1 3 1;
#X connect 2 0 3 0;
#X connect 3 0 6 0;
#X connect 4 0 9 1;
#X connect 7 0 5 0;
#X connect 7 1 1 0;
#X connect 8 0 9 0;
#X connect 9 0 7 0;
