#N canvas 0 89 675 631 10;
#X obj 112 130 limiter~;
#X obj 81 160 *~;
#X obj 110 92 *~;
#X obj 63 129 z~ 16;
#X obj 64 55 inlet~;
#X obj 114 55 inlet~;
#X obj 81 201 outlet~;
#X obj 162 55 inlet;
#X connect 0 0 1 1;
#X connect 1 0 6 0;
#X connect 2 0 0 0;
#X connect 2 0 3 0;
#X connect 3 0 1 0;
#X connect 4 0 3 0;
#X connect 4 0 0 0;
#X connect 5 0 2 0;
#X connect 7 0 2 1;
