#N canvas 0 89 903 894 10;
#X obj 65 120 t f f;
#X obj 155 183 del 1 1 samp;
#X obj 154 137 swap;
#X obj 155 160 -;
#X obj 65 52 inlet;
#X obj 174 50 inlet;
#X obj 165 285 outlet;
#X msg 155 206 stop;
#X msg 65 143 start \$1;
#X connect 0 0 8 0;
#X connect 0 1 2 0;
#X connect 1 0 7 0;
#X connect 2 0 3 0;
#X connect 2 1 3 1;
#X connect 3 0 1 0;
#X connect 4 0 0 0;
#X connect 5 0 2 1;
#X connect 7 0 6 0;
#X connect 8 0 6 0;
