#N canvas 711 568 450 300 10;
#X obj 28 193 dac~;
#X obj 28 64 tgl 15 0 empty empty empty 17 7 0 10 -4032 -1 -1 0 1;
#X obj 28 87 sel 1;
#X msg 28 116 bang;
#X msg 114 116 stop;
#X obj 28 36 inlet;
#X text 21 8 simple play/pause module for quick checks;
#X obj 27 146 tabplay~ fcloop;
#X connect 1 0 2 0;
#X connect 2 0 3 0;
#X connect 2 1 4 0;
#X connect 3 0 7 0;
#X connect 4 0 7 0;
#X connect 5 0 1 0;
#X connect 7 0 0 0;
#X connect 7 0 0 1;
#X connect 7 1 3 0;
