#N canvas 440 89 1470 991 10;
#X obj 215 412 tgl 15 0 empty empty empty 17 7 0 10 -4032 -1 -1 0 1
;
#X obj 34 432 table fcsmooth 22050;
#X obj 215 442 playpause;
#X obj 34 381 dac~;
#X obj 74 56 bng 15 250 50 0 empty empty empty 17 7 0 10 -262144 -1
-1;
#X obj 34 219 phasor~;
#X obj 34 256 *~;
#X msg 34 78 0;
#X obj 34 56 bng 15 250 50 0 empty empty empty 17 7 0 10 -262144 -1
-1;
#X obj 33 7 tgl 15 0 empty empty empty 17 7 0 10 -159808 -1 -1 0 1
;
#X obj 33 30 sel 0;
#X obj 144 256 *~ 22050;
#X obj 33 331 *~;
#X obj 33 350 *~ 0.2;
#X obj 122 8 tgl 15 0 empty empty empty 17 7 0 10 -261234 -1 -1 0 1
;
#X text 143 6 reverse;
#X obj 55 195 *;
#X msg 67 78 1;
#X obj 34 298 tabread4~ fcloop;
#X obj 144 298 tabread4~ fcsmooth;
#X obj 54 129 reverse-play;
#X obj 34 409 table fcloop 2e+06;
#X obj 185 66 t b b;
#X obj 229 66 t a b;
#X obj 228 7 tgl 15 0 empty empty empty 17 7 0 10 -4034 -1 -1 0 1;
#X obj 417 299 tabwrite~ fcloop;
#X obj 184 40 bangstop;
#X obj 431 272 r writefcloop;
#X obj 150 92 s writefcloop;
#X text 250 6 record a loop;
#X obj 468 222 limiter~;
#X obj 424 246 *~;
#X obj 437 194 *~;
#X obj 452 10 tgl 15 0 empty empty empty 17 7 0 10 -228856 -1 -1 1
1;
#X obj 468 40 adc~ 1;
#N canvas 0 89 450 300 init 0;
#X msg 28 78 \; pd dsp \$1;
#X obj 28 46 tgl 15 0 empty empty empty 17 7 0 10 -258113 -1 -1 1 1
;
#X obj 28 16 loadbang;
#X connect 1 0 0 0;
#X connect 2 0 1 0;
#X restore 389 437 pd init;
#X obj 361 7 bng 15 250 50 0 empty empty empty 17 7 0 10 -4032 -1 -1
;
#X obj 362 90 snapshot~;
#X obj 41 277 s~ od-start;
#X obj 370 65 r~ od-start;
#X obj 417 221 z~ 16;
#X obj 243 92 calculate-freq;
#X obj 322 129 od-start-stop;
#X text 380 6 overdub;
#X text 510 40 INPUT;
#X obj 94 331 s~ rebound;
#X obj 359 156 r~ rebound;
#X msg 87 195 0;
#X obj 280 65 s reset;
#X obj 87 156 r reset;
#X obj 99 55 r reset;
#X connect 0 0 2 0;
#X connect 4 0 17 0;
#X connect 5 0 6 0;
#X connect 5 0 11 0;
#X connect 6 0 18 0;
#X connect 6 0 38 0;
#X connect 7 0 5 0;
#X connect 7 0 20 0;
#X connect 8 0 7 0;
#X connect 9 0 10 0;
#X connect 10 0 8 0;
#X connect 10 1 4 0;
#X connect 11 0 19 0;
#X connect 12 0 13 0;
#X connect 13 0 3 0;
#X connect 14 0 20 1;
#X connect 16 0 5 0;
#X connect 17 0 20 0;
#X connect 18 0 12 0;
#X connect 18 0 45 0;
#X connect 19 0 12 1;
#X connect 20 0 16 0;
#X connect 22 0 28 0;
#X connect 22 1 41 0;
#X connect 23 0 28 0;
#X connect 23 1 41 1;
#X connect 23 1 48 0;
#X connect 24 0 26 0;
#X connect 26 0 22 0;
#X connect 26 1 23 0;
#X connect 27 0 25 0;
#X connect 30 0 31 1;
#X connect 31 0 25 0;
#X connect 32 0 30 0;
#X connect 32 0 40 0;
#X connect 33 0 32 1;
#X connect 34 0 30 0;
#X connect 34 0 40 0;
#X connect 36 0 37 0;
#X connect 37 0 42 0;
#X connect 39 0 37 0;
#X connect 40 0 31 0;
#X connect 41 0 6 1;
#X connect 41 0 42 1;
#X connect 41 1 16 1;
#X connect 42 0 25 0;
#X connect 46 0 32 0;
#X connect 47 0 5 1;
#X connect 49 0 47 0;
#X connect 50 0 17 0;
