#N canvas 950 89 970 991 10;
#X obj 403 201 tgl 15 0 empty empty empty 17 7 0 10 -4032 -1 -1 0 1
;
#X obj 34 432 table fcsmooth 22050;
#X obj 403 231 playpause;
#X obj 34 381 dac~;
#X obj 74 56 bng 15 250 50 0 empty empty empty 17 7 0 10 -262144 -1
-1;
#X obj 34 219 phasor~;
#X obj 34 256 *~;
#X msg 34 78 0;
#X obj 34 56 bng 15 250 50 0 empty empty empty 17 7 0 10 -262144 -1
-1;
#X obj 33 7 tgl 15 0 empty empty empty 17 7 0 10 -159808 -1 -1 0 1
;
#X obj 33 30 sel 0;
#X obj 144 256 *~ 22050;
#X obj 33 331 *~;
#X obj 33 350 *~ 0.2;
#X obj 122 8 tgl 15 0 empty empty empty 17 7 0 10 -261234 -1 -1 0 1
;
#X text 143 6 reverse;
#X obj 55 195 *;
#X msg 67 78 1;
#X text 236 183 calculate phasor freq;
#X obj 34 298 tabread4~ fcloop;
#X obj 144 298 tabread4~ fcsmooth;
#X obj 54 129 reverse-play;
#X obj 34 409 table fcloop 2e+06;
#X obj 183 96 timer 1 samp;
#X obj 185 66 t b b;
#X obj 229 66 t a b;
#X obj 228 7 tgl 15 0 empty empty empty 17 7 0 10 -4034 -1 -1 0 1;
#X obj 327 420 tabwrite~ fcloop;
#X obj 184 40 bangstop;
#X obj 374 389 r writefcloop;
#X obj 283 96 s writefcloop;
#X obj 169 134 t f f;
#X obj 196 158 t b f;
#X obj 152 184 samplerate~;
#X obj 208 209 /;
#X text 250 6 record a loop;
#X obj 380 363 limiter~;
#X obj 94 331 s~ mix;
#X obj 328 389 *~;
#X obj 379 331 *~;
#X obj 350 307 r~ mix;
#X obj 394 278 tgl 15 0 empty empty empty 17 7 0 10 -228856 -1 -1 0
1;
#X obj 285 325 adc~ 1;
#N canvas 0 89 450 300 init 0;
#X msg 28 78 \; pd dsp \$1;
#X obj 28 46 tgl 15 0 empty empty empty 17 7 0 10 -258113 -1 -1 1 1
;
#X obj 28 16 loadbang;
#X connect 1 0 0 0;
#X connect 2 0 1 0;
#X restore 430 12 pd init;
#X obj 238 325 bng 15 250 50 0 empty empty empty 17 7 0 10 -4032 -1
-1;
#X obj 238 368 snapshot~;
#X msg 238 392 start \$1;
#X obj 41 277 s~ od-start;
#X obj 159 345 r~ od-start;
#X obj 327 362 z~ 9;
#X connect 0 0 2 0;
#X connect 4 0 17 0;
#X connect 5 0 6 0;
#X connect 5 0 11 0;
#X connect 6 0 19 0;
#X connect 6 0 47 0;
#X connect 7 0 5 0;
#X connect 7 0 21 0;
#X connect 8 0 7 0;
#X connect 9 0 10 0;
#X connect 10 0 8 0;
#X connect 10 1 4 0;
#X connect 11 0 20 0;
#X connect 12 0 13 0;
#X connect 13 0 3 0;
#X connect 14 0 21 1;
#X connect 16 0 5 0;
#X connect 17 0 21 0;
#X connect 19 0 12 0;
#X connect 19 0 37 0;
#X connect 20 0 12 1;
#X connect 21 0 16 0;
#X connect 23 0 31 0;
#X connect 24 0 30 0;
#X connect 24 1 23 0;
#X connect 25 0 30 0;
#X connect 25 1 23 1;
#X connect 26 0 28 0;
#X connect 28 0 24 0;
#X connect 28 1 25 0;
#X connect 29 0 27 0;
#X connect 31 0 6 1;
#X connect 31 1 32 0;
#X connect 32 0 33 0;
#X connect 32 1 34 1;
#X connect 33 0 34 0;
#X connect 34 0 16 1;
#X connect 36 0 38 1;
#X connect 38 0 27 0;
#X connect 39 0 36 0;
#X connect 39 0 49 0;
#X connect 40 0 39 0;
#X connect 41 0 39 1;
#X connect 42 0 36 0;
#X connect 42 0 49 0;
#X connect 44 0 45 0;
#X connect 45 0 46 0;
#X connect 46 0 27 0;
#X connect 48 0 45 0;
#X connect 49 0 38 0;
