#N canvas 2210 62 1076 1018 10;
#X obj 370 448 adc~;
#X msg 36 471 \; pd dsp \$1;
#X obj 36 440 tgl 15 0 empty empty empty 17 7 0 10 -258113 -1 -1 1
1;
#X obj 480 492 nbx 5 14 -1e+37 1e+37 0 0 empty empty empty 0 -8 0 10
-262130 -1 -1 40960 256;
#X obj 453 469 timer 1 samp;
#X obj 408 448 t b b;
#X obj 452 448 t a b;
#X obj 407 408 tgl 15 0 empty empty empty 17 7 0 10 -4034 -1 -1 0 1
;
#X obj 134 448 tgl 15 0 empty empty empty 17 7 0 10 -4032 -1 -1 0 1
;
#X obj 34 412 table fcsmooth 22050;
#X obj 371 489 tabwrite~ fcloop;
#X obj 407 427 bangstop;
#X obj 134 478 playpause;
#X obj 171 103 t b b;
#X obj 34 361 dac~;
#X obj 74 56 bng 15 250 50 0 empty empty empty 17 7 0 10 -262144 -1
-1;
#X obj 171 131 samplerate~;
#X obj 184 158 /;
#X obj 34 219 phasor~;
#X obj 34 256 *~;
#X obj 249 142 t f f;
#X obj 249 120 arraysize loop;
#X msg 34 78 0;
#X obj 34 56 bng 15 250 50 0 empty empty empty 17 7 0 10 -262144 -1
-1;
#X obj 33 7 tgl 15 0 empty empty empty 17 7 0 10 -159808 -1 -1 0 1
;
#X obj 33 30 sel 0;
#X obj 144 256 *~ 22050;
#X obj 33 311 *~;
#X obj 33 330 *~ 0.2;
#X obj 122 8 tgl 15 0 empty empty empty 17 7 0 10 -261234 -1 -1 0 1
;
#X text 143 6 reverse;
#X obj 55 195 *;
#X msg 67 78 1;
#X text 219 88 calculate phasor freq;
#X obj 34 278 tabread4~ fcloop;
#X obj 144 278 tabread4~ fcsmooth;
#X obj 54 129 reverse-play;
#X obj 34 389 table fcloop 2e+06;
#X text 449 299 # samples;
#X obj 342 210 adc~;
#X obj 452 283 nbx 5 14 -1e+37 1e+37 0 0 empty empty empty 0 -8 0 10
-262130 -1 -1 30720 256;
#X obj 425 251 timer 1 samp;
#X obj 380 225 t b b;
#X obj 424 225 t a b;
#X obj 379 175 tgl 15 0 empty empty empty 17 7 0 10 -4034 -1 -1 0 1
;
#X obj 343 283 tabwrite~ fcloop;
#X obj 379 199 bangstop;
#X connect 0 0 10 0;
#X connect 2 0 1 0;
#X connect 4 0 3 0;
#X connect 5 0 10 0;
#X connect 5 1 4 0;
#X connect 6 0 10 0;
#X connect 6 1 4 1;
#X connect 7 0 11 0;
#X connect 8 0 12 0;
#X connect 11 0 5 0;
#X connect 11 1 6 0;
#X connect 13 0 16 0;
#X connect 13 1 21 0;
#X connect 15 0 13 0;
#X connect 15 0 32 0;
#X connect 16 0 17 0;
#X connect 17 0 31 1;
#X connect 18 0 19 0;
#X connect 18 0 26 0;
#X connect 19 0 34 0;
#X connect 20 0 17 1;
#X connect 20 1 19 1;
#X connect 21 0 20 0;
#X connect 22 0 18 0;
#X connect 22 0 36 0;
#X connect 23 0 22 0;
#X connect 24 0 25 0;
#X connect 25 0 23 0;
#X connect 25 1 15 0;
#X connect 26 0 35 0;
#X connect 27 0 28 0;
#X connect 28 0 14 0;
#X connect 29 0 36 1;
#X connect 31 0 18 0;
#X connect 32 0 36 0;
#X connect 34 0 27 0;
#X connect 35 0 27 1;
#X connect 36 0 31 0;
#X connect 39 0 45 0;
#X connect 41 0 40 0;
#X connect 42 0 45 0;
#X connect 42 1 41 0;
#X connect 43 0 45 0;
#X connect 43 1 41 1;
#X connect 44 0 46 0;
#X connect 46 0 42 0;
#X connect 46 1 43 0;
